<?xml version="1.0" standalone="no"?>
<!DOCTYPE svg PUBLIC "-//W3C//DTD SVG 20010904//EN"
 "http://www.w3.org/TR/2001/REC-SVG-20010904/DTD/svg10.dtd">
<svg version="1.0" xmlns="http://www.w3.org/2000/svg"
 width="360.000000pt" height="360.000000pt" viewBox="0 0 360.000000 360.000000"
 preserveAspectRatio="xMidYMid meet">

<g transform="translate(0.000000,360.000000) scale(0.100000,-0.100000)"
fill="#000000" stroke="none">
<path d="M1490 3594 c-321 -21 -581 -57 -791 -109 -271 -68 -450 -158 -493
-249 -22 -47 -23 -273 -1 -315 61 -118 356 -237 745 -300 304 -49 403 -56 855
-55 384 0 450 2 615 22 516 63 860 176 961 314 29 40 29 43 29 170 0 184 -18
213 -182 298 -188 98 -472 162 -953 214 -62 7 -709 15 -785 10z m1115 -308
c326 -31 506 -69 513 -108 22 -121 -1292 -189 -2148 -112 -442 39 -599 98
-413 154 90 27 228 47 453 65 276 22 282 22 875 20 414 -2 592 -7 720 -19z"/>
<path d="M190 1537 c0 -1033 2 -1142 16 -1173 76 -160 571 -308 1169 -351 171
-12 784 -9 930 6 586 56 1017 193 1089 345 14 31 16 140 16 1173 0 1058 -2
1136 -17 1105 -57 -116 -334 -232 -708 -296 -462 -79 -1066 -91 -1565 -31
-348 43 -661 129 -806 224 -64 41 -83 60 -107 106 -15 28 -16 -63 -17 -1108z
m911 277 l69 -16 0 -110 0 -110 -32 20 c-80 49 -246 68 -319 38 -95 -40 -101
-132 -12 -187 21 -13 90 -49 154 -80 190 -92 249 -165 249 -305 0 -210 -138
-313 -421 -314 -112 0 -199 12 -261 37 l-38 15 0 109 c0 60 2 109 5 109 3 0
23 -11 43 -25 65 -43 144 -65 231 -65 124 0 186 36 186 110 0 58 -39 91 -200
170 -214 104 -260 160 -260 315 0 80 3 95 27 135 47 81 119 131 222 156 75 18
273 17 357 -2z m898 1 c90 -24 154 -61 220 -129 140 -147 185 -376 116 -593
-41 -131 -127 -233 -242 -289 l-55 -27 48 -44 c83 -74 122 -88 247 -88 l107 0
0 -92 c0 -93 0 -93 -27 -100 -16 -4 -73 -7 -129 -8 -97 0 -103 1 -180 39 -65
32 -99 60 -193 153 -96 94 -120 113 -145 113 -42 0 -123 23 -172 48 -115 59
-198 159 -242 291 -33 98 -37 272 -8 366 55 183 182 313 353 360 65 18 235 18
302 0z m781 -430 l0 -435 195 0 195 0 0 -95 0 -95 -315 0 -315 0 0 530 0 530
120 0 120 0 0 -435z"/>
<path d="M1732 1599 c-105 -52 -157 -171 -150 -337 5 -118 30 -183 92 -240 50
-46 100 -65 176 -66 103 -1 174 44 222 142 32 65 33 71 33 192 0 109 -3 131
-23 175 -29 62 -75 112 -127 136 -58 27 -167 26 -223 -2z"/>
</g>
</svg>
